<?xml version="1.0" encoding="UTF-8"?>
<svg width="27px" height="24px" viewBox="0 0 27 24" version="1.1" xmlns="http://www.w3.org/2000/svg" xmlns:xlink="http://www.w3.org/1999/xlink">
    <!-- Generator: Sketch 39.1 (31720) - http://www.bohemiancoding.com/sketch -->
    <title>CONTRIB-icon@SVG</title>
    <desc>Created with Sketch.</desc>
    <defs></defs>
    <g id="Page-1" stroke="none" stroke-width="1" fill="none" fill-rule="evenodd">
        <g id="Me" transform="translate(-54.000000, -372.000000)" fill="#FFFFFF">
            <g id="CONTRIB-icon" transform="translate(54.000000, 372.000000)">
                <g id="ALL">
                    <path d="M6.64615385,23.7807692 L0.830769231,23.7807692 C0.601358642,23.7807692 0.415384615,23.5947952 0.415384615,23.3653846 L0.415384615,16.362 C0.415384615,16.1325894 0.601358642,15.9466154 0.830769231,15.9466154 L6.64615385,15.9466154 C6.87556443,15.9466154 7.06153846,16.1325894 7.06153846,16.362 L7.06153846,23.3653846 C7.06153846,23.5947952 6.87556443,23.7807692 6.64615385,23.7807692 L6.64615385,23.7807692 Z M1.24615385,22.95 L6.23076923,22.95 L6.23076923,16.7773846 L1.24615385,16.7773846 L1.24615385,22.95 L1.24615385,22.95 Z" id="Shape"></path>
                    <path d="M16.6153846,23.7807692 L10.8,23.7807692 C10.5705894,23.7807692 10.3846154,23.5947952 10.3846154,23.3653846 L10.3846154,10.1312308 C10.3846154,9.90182018 10.5705894,9.71584615 10.8,9.71584615 L16.6153846,9.71584615 C16.8447952,9.71584615 17.0307692,9.90182018 17.0307692,10.1312308 L17.0307692,23.3653846 C17.0307692,23.5947952 16.8447952,23.7807692 16.6153846,23.7807692 L16.6153846,23.7807692 Z M11.2153846,22.95 L16.2,22.95 L16.2,10.5466154 L11.2153846,10.5466154 L11.2153846,22.95 L11.2153846,22.95 Z" id="Shape"></path>
                    <path d="M26.5846154,23.7807692 L20.7692308,23.7807692 C20.5398202,23.7807692 20.3538462,23.5947952 20.3538462,23.3653846 L20.3538462,1.82353846 C20.3538462,1.59412787 20.5398202,1.40815385 20.7692308,1.40815385 L26.5846154,1.40815385 C26.814026,1.40815385 27,1.59412787 27,1.82353846 L27,23.3653846 C27,23.5947952 26.814026,23.7807692 26.5846154,23.7807692 L26.5846154,23.7807692 Z M21.1846154,22.95 L26.1692308,22.95 L26.1692308,2.23892308 L21.1846154,2.23892308 L21.1846154,22.95 L21.1846154,22.95 Z" id="Shape"></path>
                    <path d="M13.5166154,5.25461538 C13.2872048,5.25461538 13.1012308,5.06864136 13.1012308,4.83923077 L13.1012308,1.14230769 L9.40430769,1.14230769 C9.1748971,1.14230769 8.98892308,0.956333665 8.98892308,0.726923077 C8.98892308,0.497512489 9.1748971,0.311538462 9.40430769,0.311538462 L13.932,0.311538462 L13.932,4.83923077 C13.932,5.06864136 13.746026,5.25461538 13.5166154,5.25461538 L13.5166154,5.25461538 Z" id="Shape"></path>
                    <path d="M0.830769231,13.8281538 C0.66201297,13.8291352 0.509435982,13.72792 0.444722836,13.5720615 C0.38000969,13.4162031 0.416024329,13.2366837 0.535846154,13.1178462 L13.2258462,0.415384615 C13.3906543,0.274246562 13.6363268,0.283735826 13.789757,0.437166047 C13.9431873,0.590596267 13.9526765,0.836268808 13.8115385,1.00107692 L1.12569231,13.7076923 C1.04730141,13.7854467 0.941179701,13.8287922 0.830769231,13.8281538 L0.830769231,13.8281538 Z" id="Shape"></path>
                </g>
            </g>
        </g>
    </g>
</svg>