<?xml version="1.0" encoding="UTF-8"?>
<svg width="27px" height="19px" viewBox="0 0 27 19" version="1.1" xmlns="http://www.w3.org/2000/svg" xmlns:xlink="http://www.w3.org/1999/xlink">
    <!-- Generator: Sketch 39.1 (31720) - http://www.bohemiancoding.com/sketch -->
    <title>email-icon@SVG</title>
    <desc>Created with Sketch.</desc>
    <defs></defs>
    <g id="Page-1" stroke="none" stroke-width="1" fill="none" fill-rule="evenodd">
        <g id="create-account1" transform="translate(-34.000000, -233.000000)" fill="#F8F6F6">
            <g id="email-icon" transform="translate(34.000000, 233.000000)">
                <g id="Group">
                    <path d="M25.3985625,0.552117647 L1.6014375,0.552117647 C0.79875,0.552117647 0.1456875,1.20091176 0.1456875,1.99779412 L0.1456875,17.0016471 C0.1456875,17.7990882 0.79875,18.4478824 1.6014375,18.4478824 L25.399125,18.4478824 C26.2018125,18.4478824 26.854875,17.7990882 26.854875,17.0016471 L26.854875,1.99779412 C26.8543125,1.20091176 26.20125,0.552117647 25.3985625,0.552117647 L25.3985625,0.552117647 Z M13.5984375,12.9529706 C13.3239375,13.2251176 13.1473125,13.2256765 12.8818125,12.9619118 L2.0165625,1.66976471 L24.9361875,1.66976471 L13.5984375,12.9529706 L13.5984375,12.9529706 Z M8.843625,10.3818235 L1.2706875,16.8429412 L1.2706875,2.51191176 L8.843625,10.3818235 L8.843625,10.3818235 Z M9.6215625,11.191 L12.0774375,13.7431471 C12.4351875,14.0974412 12.835125,14.2740294 13.235625,14.2740294 C13.636125,14.2740294 14.0371875,14.0968824 14.394375,13.7420294 L17.28675,10.8646471 C17.317125,10.9171765 17.3503125,10.9691471 17.3986875,11.0110588 L24.6335625,17.3302353 L2.4260625,17.3302353 L9.6215625,11.191 L9.6215625,11.191 Z M25.5819375,16.6708235 L18.140625,10.1717059 C18.11025,10.1448824 18.0736875,10.1331471 18.0399375,10.1141471 L25.72875,2.46273529 L25.72875,16.8921176 C25.698375,16.8105294 25.6528125,16.7328529 25.5819375,16.6708235 L25.5819375,16.6708235 Z" id="Shape"></path>
                </g>
            </g>
        </g>
    </g>
</svg>