<?xml version="1.0" encoding="UTF-8"?>
<svg width="14px" height="31px" viewBox="0 0 14 31" version="1.1" xmlns="http://www.w3.org/2000/svg" xmlns:xlink="http://www.w3.org/1999/xlink">
    <!-- Generator: Sketch 39.1 (31720) - http://www.bohemiancoding.com/sketch -->
    <title>income-icon@SVG</title>
    <desc>Created with Sketch.</desc>
    <defs></defs>
    <g id="Page-1" stroke="none" stroke-width="1" fill="none" fill-rule="evenodd">
        <g id="Me" transform="translate(-214.000000, -512.000000)" fill="#FFFFFF">
            <g id="income-icon" transform="translate(214.000000, 512.000000)">
                <g id="Group">
                    <g>
                        <path d="M6.33478261,27.6753623 C3.45942029,27.6753623 1.75217391,26.6869565 0.404347826,25.8782609 L0.224637681,25.7884058 L1.12318841,24.3057971 L1.30289855,24.3956522 C2.51594203,25.1144928 3.90869565,25.9681159 6.33478261,25.9681159 C8.67101449,25.9681159 11.9956522,24.5753623 11.9956522,21.5202899 C11.9956522,19.4086957 11.1869565,17.9710145 6.87391304,16.1289855 C2.78550725,14.3318841 0.763768116,12.0405797 0.763768116,9.12028986 C0.763768116,6.15507246 3.90869565,3.36956522 7.1884058,3.36956522 C9.47971014,3.36956522 11.4115942,4.31304348 12.8492754,5.16666667 L11.9507246,6.64927536 C10.7376812,5.93043478 9.07536232,5.12173913 7.1884058,5.12173913 C4.85217391,5.12173913 2.47101449,7.14347826 2.47101449,9.12028986 C2.47101449,11.2768116 4.13333333,13.0289855 7.54782609,14.5115942 C12.0855072,16.4884058 13.7028986,18.2855072 13.7028986,21.5202899 C13.7028986,25.3391304 9.92898551,27.6753623 6.33478261,27.6753623 L6.33478261,27.6753623 Z" id="Shape"></path>
                        <rect id="Rectangle-path" x="5.88550725" y="0.314492754" width="1.75217391" height="30.3710145"></rect>
                    </g>
                </g>
            </g>
        </g>
    </g>
</svg>