<?xml version="1.0" encoding="UTF-8"?>
<svg width="23px" height="31px" viewBox="0 0 23 31" version="1.1" xmlns="http://www.w3.org/2000/svg" xmlns:xlink="http://www.w3.org/1999/xlink">
    <!-- Generator: Sketch 39.1 (31720) - http://www.bohemiancoding.com/sketch -->
    <title>passcode-icon@SVG</title>
    <desc>Created with Sketch.</desc>
    <defs></defs>
    <g id="Page-1" stroke="none" stroke-width="1" fill="none" fill-rule="evenodd">
        <g id="create-account1" transform="translate(-36.000000, -292.000000)" fill="#F8F6F6">
            <g id="passcode-icon" transform="translate(36.000000, 292.000000)">
                <g id="Group">
                    <g id="Shape">
                        <path d="M3.53214286,0.163421053 C1.60178571,0.163421053 0.0410714286,1.71592105 0.0410714286,3.63611842 C0.0410714286,5.55631579 1.60178571,7.10881579 3.53214286,7.10881579 C5.4625,7.10881579 7.02321429,5.55631579 7.02321429,3.63611842 C7.02321429,1.71592105 5.4625,0.163421053 3.53214286,0.163421053 L3.53214286,0.163421053 Z M3.53214286,5.88315789 C2.25892857,5.88315789 1.23214286,4.86177632 1.23214286,3.59526316 C1.23214286,2.32875 2.25892857,1.30736842 3.53214286,1.30736842 C4.80535714,1.30736842 5.83214286,2.32875 5.83214286,3.59526316 C5.83214286,4.86177632 4.80535714,5.88315789 3.53214286,5.88315789 L3.53214286,5.88315789 Z"></path>
                        <path d="M11.5,0.163421053 C9.56964286,0.163421053 8.00892857,1.71592105 8.00892857,3.63611842 C8.00892857,5.55631579 9.56964286,7.10881579 11.5,7.10881579 C13.4303571,7.10881579 14.9910714,5.55631579 14.9910714,3.63611842 C14.9910714,1.71592105 13.4303571,0.163421053 11.5,0.163421053 L11.5,0.163421053 Z M11.5,5.88315789 C10.2267857,5.88315789 9.2,4.86177632 9.2,3.59526316 C9.2,2.32875 10.2267857,1.30736842 11.5,1.30736842 C12.7732143,1.30736842 13.8,2.32875 13.8,3.59526316 C13.8,4.86177632 12.7732143,5.88315789 11.5,5.88315789 L11.5,5.88315789 Z"></path>
                        <path d="M19.4678571,0.163421053 C17.5375,0.163421053 15.9767857,1.71592105 15.9767857,3.63611842 C15.9767857,5.55631579 17.5375,7.10881579 19.4678571,7.10881579 C21.3982143,7.10881579 22.9589286,5.55631579 22.9589286,3.63611842 C22.9589286,1.71592105 21.3982143,0.163421053 19.4678571,0.163421053 L19.4678571,0.163421053 Z M19.4678571,5.88315789 C18.1946429,5.88315789 17.1678571,4.86177632 17.1678571,3.59526316 C17.1678571,2.32875 18.1946429,1.30736842 19.4678571,1.30736842 C20.7410714,1.30736842 21.7678571,2.32875 21.7678571,3.59526316 C21.7678571,4.86177632 20.7410714,5.88315789 19.4678571,5.88315789 L19.4678571,5.88315789 Z"></path>
                        <path d="M3.53214286,8.08934211 C1.60178571,8.08934211 0.0410714286,9.64184211 0.0410714286,11.5620395 C0.0410714286,13.4822368 1.60178571,15.0347368 3.53214286,15.0347368 C5.4625,15.0347368 7.02321429,13.4822368 7.02321429,11.5620395 C7.02321429,9.64184211 5.4625,8.08934211 3.53214286,8.08934211 L3.53214286,8.08934211 Z M3.53214286,13.8499342 C2.25892857,13.8499342 1.23214286,12.8285526 1.23214286,11.5620395 C1.23214286,10.2955263 2.25892857,9.27414474 3.53214286,9.27414474 C4.80535714,9.27414474 5.83214286,10.2955263 5.83214286,11.5620395 C5.83214286,12.8285526 4.80535714,13.8499342 3.53214286,13.8499342 L3.53214286,13.8499342 Z"></path>
                        <path d="M11.5,8.08934211 C9.56964286,8.08934211 8.00892857,9.64184211 8.00892857,11.5620395 C8.00892857,13.4822368 9.56964286,15.0347368 11.5,15.0347368 C13.4303571,15.0347368 14.9910714,13.4822368 14.9910714,11.5620395 C14.9910714,9.64184211 13.4303571,8.08934211 11.5,8.08934211 L11.5,8.08934211 Z M11.5,13.8499342 C10.2267857,13.8499342 9.2,12.8285526 9.2,11.5620395 C9.2,10.2955263 10.2267857,9.27414474 11.5,9.27414474 C12.7732143,9.27414474 13.8,10.2955263 13.8,11.5620395 C13.8,12.8285526 12.7732143,13.8499342 11.5,13.8499342 L11.5,13.8499342 Z"></path>
                        <path d="M19.4678571,8.08934211 C17.5375,8.08934211 15.9767857,9.64184211 15.9767857,11.5620395 C15.9767857,13.4822368 17.5375,15.0347368 19.4678571,15.0347368 C21.3982143,15.0347368 22.9589286,13.4822368 22.9589286,11.5620395 C22.9589286,9.64184211 21.3982143,8.08934211 19.4678571,8.08934211 L19.4678571,8.08934211 Z M19.4678571,13.8499342 C18.1946429,13.8499342 17.1678571,12.8285526 17.1678571,11.5620395 C17.1678571,10.2955263 18.1946429,9.27414474 19.4678571,9.27414474 C20.7410714,9.27414474 21.7678571,10.2955263 21.7678571,11.5620395 C21.7678571,12.8285526 20.7410714,13.8499342 19.4678571,13.8499342 L19.4678571,13.8499342 Z"></path>
                        <path d="M3.53214286,16.0152632 C1.60178571,16.0152632 0.0410714286,17.5677632 0.0410714286,19.4879605 C0.0410714286,21.4081579 1.60178571,22.9606579 3.53214286,22.9606579 C5.4625,22.9606579 7.02321429,21.4081579 7.02321429,19.4879605 C7.02321429,17.5677632 5.4625,16.0152632 3.53214286,16.0152632 L3.53214286,16.0152632 Z M3.53214286,21.7758553 C2.25892857,21.7758553 1.23214286,20.7544737 1.23214286,19.4879605 C1.23214286,18.2214474 2.25892857,17.2000658 3.53214286,17.2000658 C4.80535714,17.2000658 5.83214286,18.2214474 5.83214286,19.4879605 C5.83214286,20.7544737 4.80535714,21.7758553 3.53214286,21.7758553 L3.53214286,21.7758553 Z"></path>
                        <path d="M11.5,16.0152632 C9.56964286,16.0152632 8.00892857,17.5677632 8.00892857,19.4879605 C8.00892857,21.4081579 9.56964286,22.9606579 11.5,22.9606579 C13.4303571,22.9606579 14.9910714,21.4081579 14.9910714,19.4879605 C14.9910714,17.5677632 13.4303571,16.0152632 11.5,16.0152632 L11.5,16.0152632 Z M11.5,21.7758553 C10.2267857,21.7758553 9.2,20.7544737 9.2,19.4879605 C9.2,18.2214474 10.2267857,17.2000658 11.5,17.2000658 C12.7732143,17.2000658 13.8,18.2214474 13.8,19.4879605 C13.8,20.7544737 12.7732143,21.7758553 11.5,21.7758553 L11.5,21.7758553 Z"></path>
                        <path d="M19.4678571,16.0152632 C17.5375,16.0152632 15.9767857,17.5677632 15.9767857,19.4879605 C15.9767857,21.4081579 17.5375,22.9606579 19.4678571,22.9606579 C21.3982143,22.9606579 22.9589286,21.4081579 22.9589286,19.4879605 C22.9589286,17.5677632 21.3982143,16.0152632 19.4678571,16.0152632 L19.4678571,16.0152632 Z M19.4678571,21.7758553 C18.1946429,21.7758553 17.1678571,20.7544737 17.1678571,19.4879605 C17.1678571,18.2214474 18.1946429,17.2000658 19.4678571,17.2000658 C20.7410714,17.2000658 21.7678571,18.2214474 21.7678571,19.4879605 C21.7678571,20.7544737 20.7410714,21.7758553 19.4678571,21.7758553 L19.4678571,21.7758553 Z"></path>
                        <path d="M11.5,23.9820395 C9.56964286,23.9820395 8.00892857,25.5345395 8.00892857,27.4547368 C8.00892857,29.3749342 9.56964286,30.9274342 11.5,30.9274342 C13.4303571,30.9274342 14.9910714,29.3749342 14.9910714,27.4547368 C14.9910714,25.5345395 13.4303571,23.9820395 11.5,23.9820395 L11.5,23.9820395 Z M11.5,29.7017763 C10.2267857,29.7017763 9.2,28.6803947 9.2,27.4138816 C9.2,26.1473684 10.2267857,25.1259868 11.5,25.1259868 C12.7732143,25.1259868 13.8,26.1473684 13.8,27.4138816 C13.8,28.6803947 12.7732143,29.7017763 11.5,29.7017763 L11.5,29.7017763 Z"></path>
                    </g>
                </g>
            </g>
        </g>
    </g>
</svg>