<?xml version="1.0" encoding="UTF-8"?>
<svg width="27px" height="27px" viewBox="0 0 27 27" version="1.1" xmlns="http://www.w3.org/2000/svg" xmlns:xlink="http://www.w3.org/1999/xlink">
    <!-- Generator: Sketch 39.1 (31720) - http://www.bohemiancoding.com/sketch -->
    <title>person-icon@SVG</title>
    <desc>Created with Sketch.</desc>
    <defs></defs>
    <g id="Page-1" stroke="none" stroke-width="1" fill="none" fill-rule="evenodd">
        <g id="create-account1" transform="translate(-34.000000, -163.000000)" fill="#F8F6F6">
            <g id="person-icon" transform="translate(34.000000, 163.000000)">
                <g id="profile">
                    <g id="Group">
                        <g id="Shape">
                            <path d="M13.428382,25.622449 C9.8808476,25.622449 6.69221727,24.0936429 4.46066434,21.6704913 C6.31378105,18.4579242 9.67942187,16.4715743 13.428382,16.4715743 C17.1773421,16.4715743 20.5429829,18.4579242 22.3960996,21.6704913 C20.1645467,24.0936429 16.9759163,25.622449 13.428382,25.622449 M9.76609597,10.9810496 C9.76609597,8.96297668 11.4092416,7.32069971 13.428382,7.32069971 C15.4475223,7.32069971 17.090668,8.96297668 17.090668,10.9810496 C17.090668,12.9991224 15.4475223,14.6413994 13.428382,14.6413994 C11.4092416,14.6413994 9.76609597,12.9991224 9.76609597,10.9810496 M13.428382,1.22011662 C20.1596636,1.22011662 25.6360019,6.69355977 25.6360019,13.4212828 C25.6360019,16.1384825 24.7314173,18.6433819 23.2225555,20.673656 C21.4609959,17.8710481 18.6373734,15.9884082 15.4047956,15.4369155 C17.1150832,14.6780029 18.3114299,12.9710598 18.3114299,10.9810496 C18.3114299,8.28581195 16.1250452,6.10058309 13.428382,6.10058309 C10.7317187,6.10058309 8.54533398,8.28581195 8.54533398,10.9810496 C8.54533398,12.9710598 9.74168073,14.6767828 11.4519683,15.4369155 C8.21939052,15.9884082 5.39576803,17.8710481 3.63420846,20.673656 C2.12534664,18.6433819 1.220762,16.1384825 1.220762,13.4212828 C1.220762,6.69355977 6.69710031,1.22011662 13.428382,1.22011662 M13.428382,0 C6.01225283,0 0,6.00907434 0,13.4212828 C0,20.8334913 6.01225283,26.8425656 13.428382,26.8425656 C20.8445111,26.8425656 26.8567639,20.8334913 26.8567639,13.4212828 C26.8567639,6.00907434 20.8445111,0 13.428382,0"></path>
                        </g>
                    </g>
                </g>
            </g>
        </g>
    </g>
</svg>